<?xml version="1.0" encoding="iso-8859-1"?>
<!-- Generator: Adobe Illustrator 16.0.0, SVG Export Plug-In . SVG Version: 6.00 Build 0)  -->
<!DOCTYPE svg PUBLIC "-//W3C//DTD SVG 1.1//EN" "http://www.w3.org/Graphics/SVG/1.1/DTD/svg11.dtd">
<svg version="1.1" id="Layer_1" xmlns="http://www.w3.org/2000/svg" xmlns:xlink="http://www.w3.org/1999/xlink" x="0px" y="0px"
	 width="32px" height="32px" viewBox="0 0 32 32" style="enable-background:new 0 0 32 32;" xml:space="preserve">
<title>filter</title>
<path style="fill:#FFFFFF;" d="M16,0C7.163,0,0,2.239,0,5v3l12,12v10c0,1.105,1.791,2,4,2s4-0.895,4-2V20L32,8V5
	C32,2.239,24.837,0,16,0z M2.95,4.338c0.748-0.427,1.799-0.832,3.04-1.171C8.738,2.415,12.293,2,16.001,2s7.263,0.414,10.011,1.167
	c1.241,0.34,2.293,0.745,3.04,1.171C29.546,4.619,29.812,4.857,29.936,5c-0.123,0.142-0.391,0.38-0.884,0.662
	c-0.747,0.427-1.8,0.832-3.04,1.171C23.264,7.585,19.709,8,16.001,8S8.739,7.586,5.99,6.833c-1.24-0.34-2.292-0.745-3.04-1.171
	C2.456,5.38,2.19,5.143,2.066,5C2.19,4.858,2.457,4.62,2.95,4.338z"/>
</svg>
